<?xml version="1.0" encoding="UTF-8"?>
<svg xmlns="http://www.w3.org/2000/svg" xmlns:xlink="http://www.w3.org/1999/xlink" width="375pt" height="374.999991pt" viewBox="0 0 375 374.999991" version="1.2">
<g id="surface1">
<path style=" stroke:none;fill-rule:nonzero;fill:rgb(87.449646%,52.549744%,39.99939%);fill-opacity:1;" d="M 83.835938 287.296875 C 86.371094 289.617188 87.753906 292.824219 90.578125 294.46875 C 93.148438 295.957031 94.546875 295.03125 97.207031 295.121094 C 101.441406 295.269531 108.289062 300.75 109.542969 304.53125 C 110.359375 306.988281 108.28125 309.183594 108.085938 311.578125 C 107.953125 313.179688 108.328125 315.109375 107.519531 316.550781 C 106.609375 318.171875 104.503906 319.050781 102.988281 320.070312 C 101.289062 321.21875 101.558594 322.003906 100.597656 323.714844 C 100.210938 324.402344 99.449219 325.394531 98.765625 325.871094 C 97.894531 326.480469 97.339844 326.15625 96.410156 326.46875 C 94.726562 327.03125 94.292969 328.8125 93.125 330.046875 C 87.890625 335.578125 79.894531 327.320312 76.097656 323.5 C 69.609375 316.972656 67.996094 311.171875 55.378906 299.589844 "/>
<path style=" stroke:none;fill-rule:nonzero;fill:rgb(13.729858%,12.159729%,12.548828%);fill-opacity:1;" d="M 89.011719 332.523438 C 84.179688 332.523438 78.988281 327.292969 75.878906 324.164062 L 75.65625 323.941406 C 73.085938 321.355469 71.230469 318.828125 69.269531 316.15625 C 66.140625 311.890625 62.59375 307.058594 54.957031 300.046875 C 54.703125 299.816406 54.6875 299.421875 54.917969 299.167969 C 55.152344 298.914062 55.546875 298.898438 55.800781 299.128906 C 63.527344 306.222656 67.109375 311.109375 70.273438 315.417969 C 72.292969 318.164062 74.035156 320.539062 76.539062 323.058594 L 76.761719 323.285156 C 79.539062 326.082031 84.699219 331.277344 89.011719 331.277344 C 89.03125 331.277344 89.054688 331.277344 89.074219 331.277344 C 90.457031 331.257812 91.632812 330.71875 92.671875 329.617188 C 93.035156 329.230469 93.328125 328.777344 93.632812 328.296875 C 94.257812 327.320312 94.90625 326.3125 96.210938 325.875 C 96.65625 325.726562 97.023438 325.703125 97.34375 325.675781 C 97.753906 325.648438 98.027344 325.628906 98.40625 325.359375 C 98.992188 324.953125 99.691406 324.050781 100.050781 323.410156 C 100.339844 322.894531 100.515625 322.460938 100.667969 322.078125 C 101.023438 321.199219 101.328125 320.4375 102.640625 319.554688 C 103.035156 319.285156 103.464844 319.03125 103.910156 318.769531 C 105.121094 318.050781 106.378906 317.308594 106.972656 316.246094 C 107.460938 315.382812 107.445312 314.21875 107.433594 313.089844 C 107.425781 312.554688 107.421875 312.023438 107.460938 311.523438 C 107.546875 310.484375 107.941406 309.511719 108.324219 308.566406 C 108.863281 307.242188 109.371094 305.996094 108.949219 304.726562 C 107.816406 301.304688 101.304688 295.886719 97.183594 295.746094 C 96.398438 295.714844 95.722656 295.785156 95.074219 295.847656 C 93.601562 295.996094 92.207031 296.132812 90.265625 295.003906 C 88.492188 293.972656 87.25 292.363281 86.054688 290.804688 C 85.246094 289.753906 84.414062 288.667969 83.414062 287.753906 C 83.160156 287.523438 83.144531 287.128906 83.375 286.875 C 83.609375 286.621094 84.003906 286.601562 84.257812 286.835938 C 85.335938 287.820312 86.203125 288.953125 87.042969 290.042969 C 88.21875 291.574219 89.328125 293.019531 90.890625 293.925781 C 92.484375 294.855469 93.519531 294.75 94.949219 294.609375 C 95.609375 294.542969 96.355469 294.472656 97.226562 294.496094 C 101.84375 294.660156 108.859375 300.5 110.132812 304.335938 C 110.699219 306.039062 110.078125 307.5625 109.480469 309.035156 C 109.117188 309.929688 108.773438 310.777344 108.703125 311.628906 C 108.664062 312.089844 108.671875 312.578125 108.679688 313.074219 C 108.695312 314.367188 108.710938 315.699219 108.0625 316.855469 C 107.300781 318.210938 105.835938 319.078125 104.542969 319.84375 C 104.121094 320.089844 103.710938 320.335938 103.335938 320.585938 C 102.339844 321.257812 102.148438 321.742188 101.824219 322.542969 C 101.65625 322.960938 101.464844 323.4375 101.136719 324.019531 C 100.710938 324.777344 99.898438 325.835938 99.121094 326.382812 C 98.457031 326.847656 97.914062 326.886719 97.433594 326.917969 C 97.160156 326.941406 96.902344 326.960938 96.605469 327.058594 C 95.714844 327.355469 95.238281 328.105469 94.683594 328.96875 C 94.359375 329.476562 94.023438 330 93.574219 330.472656 C 92.308594 331.8125 90.800781 332.5 89.089844 332.519531 C 89.066406 332.523438 89.039062 332.523438 89.011719 332.523438 Z M 89.011719 332.523438 "/>
<path style=" stroke:none;fill-rule:nonzero;fill:rgb(13.729858%,12.159729%,12.548828%);fill-opacity:1;" d="M 108.085938 312.199219 C 108.027344 312.199219 107.96875 312.191406 107.914062 312.175781 C 107.582031 312.082031 107.390625 311.738281 107.484375 311.40625 C 108.253906 308.703125 101.761719 303.046875 99.628906 301.1875 L 99.355469 300.949219 C 99.09375 300.722656 99.070312 300.328125 99.296875 300.066406 C 99.523438 299.808594 99.917969 299.785156 100.175781 300.007812 L 100.449219 300.25 C 105.007812 304.21875 109.550781 308.691406 108.683594 311.746094 C 108.605469 312.019531 108.355469 312.199219 108.085938 312.199219 Z M 108.085938 312.199219 "/>
<path style=" stroke:none;fill-rule:nonzero;fill:rgb(87.449646%,52.549744%,39.99939%);fill-opacity:1;" d="M 271.132812 278.921875 C 271.199219 282.355469 272.699219 285.515625 272.0625 288.71875 C 271.488281 291.632812 269.867188 292.070312 268.183594 294.128906 C 265.496094 297.410156 265.089844 306.175781 267.101562 309.613281 C 268.40625 311.847656 271.425781 311.734375 273.351562 313.167969 C 274.644531 314.128906 275.84375 315.683594 277.460938 316.027344 C 279.277344 316.414062 281.328125 315.410156 283.09375 314.949219 C 285.074219 314.429688 285.488281 315.152344 287.410156 315.554688 C 288.183594 315.71875 289.429688 315.800781 290.238281 315.605469 C 291.269531 315.351562 291.394531 314.722656 292.242188 314.226562 C 293.773438 313.335938 295.398438 314.183594 297.097656 314.121094 C 304.707031 313.84375 303.785156 302.382812 303.421875 297.007812 C 302.804688 287.824219 300.542969 277.972656 298.007812 268.234375 C 297.632812 266.792969 297.304688 265.152344 296.355469 264.527344 "/>
<path style=" stroke:none;fill-rule:nonzero;fill:rgb(13.729858%,12.159729%,12.548828%);fill-opacity:1;" d="M 278.316406 316.738281 C 277.984375 316.738281 277.65625 316.707031 277.332031 316.636719 C 276.035156 316.363281 275.042969 315.46875 274.085938 314.605469 C 273.714844 314.273438 273.355469 313.945312 272.980469 313.667969 C 272.296875 313.160156 271.433594 312.859375 270.523438 312.542969 C 269.019531 312.019531 267.46875 311.476562 266.5625 309.925781 C 264.523438 306.441406 264.769531 297.3125 267.699219 293.738281 C 268.25 293.0625 268.800781 292.550781 269.28125 292.101562 C 270.335938 291.117188 271.09375 290.410156 271.453125 288.601562 C 271.800781 286.828125 271.449219 285.039062 271.078125 283.144531 C 270.8125 281.792969 270.539062 280.394531 270.507812 278.933594 C 270.5 278.589844 270.773438 278.304688 271.117188 278.296875 C 271.433594 278.273438 271.746094 278.5625 271.753906 278.910156 C 271.78125 280.261719 272.046875 281.605469 272.300781 282.902344 C 272.679688 284.832031 273.074219 286.828125 272.675781 288.839844 C 272.238281 291.046875 271.214844 292 270.132812 293.011719 C 269.65625 293.457031 269.164062 293.917969 268.664062 294.527344 C 266.050781 297.71875 265.816406 306.183594 267.640625 309.296875 C 268.3125 310.449219 269.585938 310.894531 270.933594 311.367188 C 271.894531 311.699219 272.886719 312.042969 273.722656 312.667969 C 274.125 312.96875 274.519531 313.320312 274.921875 313.679688 C 275.753906 314.433594 276.621094 315.214844 277.589844 315.417969 C 278.773438 315.667969 280.167969 315.21875 281.511719 314.78125 C 281.996094 314.621094 282.476562 314.464844 282.933594 314.34375 C 284.460938 313.941406 285.234375 314.214844 286.128906 314.53125 C 286.519531 314.667969 286.960938 314.824219 287.539062 314.945312 C 288.257812 315.101562 289.398438 315.167969 290.089844 315 C 290.542969 314.890625 290.734375 314.699219 291.03125 314.410156 C 291.261719 314.183594 291.523438 313.925781 291.929688 313.6875 C 293.117188 313 294.300781 313.179688 295.445312 313.351562 C 296.007812 313.4375 296.539062 313.523438 297.074219 313.5 C 298.585938 313.445312 299.769531 312.917969 300.691406 311.894531 C 303.589844 308.675781 303.089844 301.316406 302.820312 297.363281 L 302.800781 297.050781 C 302.171875 287.652344 299.835938 277.722656 297.40625 268.394531 L 297.289062 267.941406 C 296.996094 266.785156 296.664062 265.476562 296.011719 265.046875 C 295.722656 264.859375 295.644531 264.472656 295.832031 264.183594 C 296.023438 263.894531 296.410156 263.816406 296.695312 264.007812 C 297.753906 264.703125 298.132812 266.191406 298.496094 267.636719 L 298.609375 268.078125 C 301.058594 277.46875 303.40625 287.464844 304.042969 296.96875 L 304.066406 297.277344 C 304.367188 301.707031 304.867188 309.121094 301.617188 312.726562 C 300.472656 314 298.960938 314.679688 297.121094 314.746094 C 296.476562 314.773438 295.851562 314.675781 295.257812 314.585938 C 294.242188 314.429688 293.367188 314.296875 292.554688 314.769531 C 292.285156 314.925781 292.097656 315.105469 291.902344 315.300781 C 291.558594 315.636719 291.171875 316.019531 290.386719 316.210938 C 289.464844 316.4375 288.132812 316.34375 287.28125 316.167969 C 286.625 316.027344 286.140625 315.855469 285.714844 315.707031 C 284.902344 315.417969 284.410156 315.25 283.25 315.550781 C 282.816406 315.664062 282.359375 315.8125 281.898438 315.964844 C 280.773438 316.332031 279.535156 316.738281 278.316406 316.738281 Z M 278.316406 316.738281 "/>
<path style=" stroke:none;fill-rule:nonzero;fill:rgb(13.729858%,12.159729%,12.548828%);fill-opacity:1;" d="M 273.351562 313.789062 C 273.261719 313.789062 273.171875 313.773438 273.085938 313.730469 C 270.21875 312.367188 269.863281 306 269.890625 299.953125 L 269.890625 299.585938 C 269.890625 299.242188 270.171875 298.964844 270.515625 298.964844 C 270.859375 298.96875 271.136719 299.246094 271.136719 299.59375 L 271.136719 299.960938 C 271.121094 302.789062 271.082031 311.398438 273.621094 312.605469 C 273.929688 312.75 274.0625 313.125 273.914062 313.433594 C 273.808594 313.660156 273.585938 313.789062 273.351562 313.789062 Z M 273.351562 313.789062 "/>
<path style=" stroke:none;fill-rule:nonzero;fill:rgb(0%,29.019165%,67.83905%);fill-opacity:1;" d="M 267.335938 278.65625 C 266.980469 294.699219 295.230469 293.988281 301.855469 284.578125 C 303.851562 282.082031 304.992188 273.667969 302.710938 271.175781 "/>
<path style=" stroke:none;fill-rule:nonzero;fill:rgb(13.729858%,12.159729%,12.548828%);fill-opacity:1;" d="M 284.464844 291.898438 C 281.59375 291.898438 278.734375 291.5 276.144531 290.648438 C 269.9375 288.605469 266.585938 284.339844 266.714844 278.640625 C 266.722656 278.300781 267 278.03125 267.335938 278.03125 C 267.339844 278.03125 267.347656 278.03125 267.351562 278.03125 C 267.695312 278.039062 267.96875 278.324219 267.960938 278.667969 C 267.808594 285.554688 273.265625 288.390625 276.535156 289.464844 C 285.1875 292.308594 297.476562 289.714844 301.34375 284.21875 C 303.136719 281.976562 304.304688 273.839844 302.25 271.597656 C 302.015625 271.339844 302.035156 270.945312 302.289062 270.714844 C 302.546875 270.480469 302.9375 270.5 303.171875 270.753906 C 305.703125 273.519531 304.476562 282.300781 302.339844 284.964844 C 299.320312 289.257812 291.859375 291.898438 284.464844 291.898438 Z M 284.464844 291.898438 "/>
<path style=" stroke:none;fill-rule:nonzero;fill:rgb(0%,29.019165%,67.83905%);fill-opacity:1;" d="M 52.683594 301.648438 C 61.609375 317.308594 85.453125 302.140625 85.730469 289.664062 C 86.007812 286.238281 82.144531 277.535156 78.75 276.300781 "/>
<path style=" stroke:none;fill-rule:nonzero;fill:rgb(13.729858%,12.159729%,12.548828%);fill-opacity:1;" d="M 63.828125 308.960938 C 58.828125 308.960938 54.765625 306.5625 52.140625 301.957031 C 51.96875 301.65625 52.074219 301.277344 52.375 301.105469 C 52.671875 300.9375 53.054688 301.039062 53.222656 301.339844 C 57.371094 308.621094 64.292969 308.105469 68.046875 307.15625 C 76.824219 304.933594 84.953125 296.589844 85.105469 289.652344 C 85.363281 286.460938 81.710938 278.039062 78.539062 276.882812 C 78.214844 276.769531 78.046875 276.410156 78.164062 276.085938 C 78.28125 275.761719 78.636719 275.597656 78.964844 275.714844 C 82.691406 277.066406 86.644531 286.082031 86.351562 289.714844 C 86.1875 297.246094 77.773438 305.976562 68.351562 308.363281 C 66.777344 308.765625 65.261719 308.960938 63.828125 308.960938 Z M 63.828125 308.960938 "/>
<path style=" stroke:none;fill-rule:nonzero;fill:rgb(49.409485%,85.099792%,34.118652%);fill-opacity:1;" d="M 84.425781 123.945312 C 81.492188 111.464844 80.023438 108.53125 90.296875 100.457031 C 100.570312 92.382812 110.839844 87.246094 121.847656 81.371094 C 143.859375 68.894531 167.339844 56.417969 190.816406 46.140625 C 205.492188 39.535156 220.167969 39.535156 235.574219 44.675781 C 255.386719 50.542969 275.195312 53.480469 295.003906 59.351562 C 311.148438 63.757812 326.554688 64.492188 332.425781 80.636719 C 341.964844 109.261719 344.164062 137.890625 356.636719 165.78125 C 361.039062 176.789062 374.980469 195.875 368.378906 206.882812 C 358.839844 220.832031 270.730469 258.109375 256.054688 265.449219 C 239.914062 273.519531 149.378906 254.683594 134.875 233.699219 C 120.375 212.71875 88.097656 140.089844 84.425781 123.945312 Z M 84.425781 123.945312 "/>
<path style=" stroke:none;fill-rule:nonzero;fill:rgb(13.729858%,12.159729%,12.548828%);fill-opacity:1;" d="M 242.984375 267.980469 C 210.945312 267.980469 146.453125 251.546875 134.363281 234.054688 C 119.644531 212.753906 87.339844 139.574219 83.820312 124.082031 L 83.320312 121.972656 C 80.71875 111.09375 79.933594 107.808594 89.910156 99.964844 C 99.148438 92.707031 108.359375 87.824219 118.105469 82.652344 L 121.554688 80.820312 C 148.199219 65.71875 170.132812 54.511719 190.566406 45.570312 C 198.347656 42.066406 206.121094 40.363281 214.320312 40.363281 C 221.25 40.363281 228.265625 41.578125 235.773438 44.082031 C 245.636719 47.003906 255.691406 49.242188 265.417969 51.402344 C 275.171875 53.570312 285.253906 55.8125 295.183594 58.753906 C 297.824219 59.476562 300.476562 60.105469 303.046875 60.710938 C 316.433594 63.886719 327.996094 66.625 333.011719 80.425781 C 336.964844 92.285156 339.695312 104.285156 342.332031 115.894531 C 346.058594 132.269531 349.910156 149.203125 357.207031 165.527344 C 358.289062 168.234375 359.964844 171.449219 361.734375 174.859375 C 367.226562 185.441406 374.070312 198.605469 368.914062 207.203125 C 361.28125 218.363281 304.585938 244.019531 274.128906 257.804688 C 265.921875 261.515625 259.4375 264.453125 256.335938 266.003906 C 253.714844 267.316406 249.222656 267.980469 242.984375 267.980469 Z M 214.320312 41.609375 C 206.300781 41.609375 198.695312 43.277344 191.074219 46.710938 C 170.671875 55.640625 148.773438 66.824219 122.152344 81.914062 L 118.691406 83.753906 C 108.992188 88.898438 99.828125 93.753906 90.683594 100.945312 C 81.328125 108.296875 82.007812 111.132812 84.53125 121.683594 L 85.035156 123.800781 C 88.539062 139.234375 120.722656 212.121094 135.390625 233.347656 C 147.0625 250.234375 211.941406 266.734375 242.984375 266.734375 C 248.941406 266.734375 253.363281 266.097656 255.777344 264.890625 C 258.902344 263.324219 265.394531 260.386719 273.617188 256.667969 C 303.960938 242.933594 360.449219 217.371094 367.863281 206.53125 C 372.640625 198.5625 365.980469 185.738281 360.625 175.433594 C 358.839844 171.996094 357.15625 168.753906 356.0625 166.011719 C 348.71875 149.597656 344.855469 132.605469 341.117188 116.171875 C 338.484375 104.59375 335.761719 92.621094 331.835938 80.835938 C 327.054688 67.6875 315.796875 65.015625 302.757812 61.925781 C 300.179688 61.316406 297.515625 60.683594 294.839844 59.953125 C 284.941406 57.019531 274.878906 54.78125 265.148438 52.621094 C 255.402344 50.453125 245.320312 48.210938 235.398438 45.269531 C 228 42.804688 221.113281 41.609375 214.320312 41.609375 Z M 214.320312 41.609375 "/>
<path style=" stroke:none;fill-rule:nonzero;fill:rgb(13.729858%,12.159729%,12.548828%);fill-opacity:1;" d="M 192.648438 139.558594 C 163.992188 139.558594 83.636719 109.285156 82.828125 108.976562 L 83.265625 107.8125 C 84.074219 108.117188 164.214844 138.3125 192.644531 138.3125 C 192.707031 138.3125 192.773438 138.3125 192.835938 138.3125 C 238.464844 138.089844 328.554688 75.425781 329.460938 74.792969 L 330.171875 75.816406 C 329.265625 76.449219 238.855469 139.335938 192.839844 139.558594 C 192.777344 139.558594 192.710938 139.558594 192.648438 139.558594 Z M 192.648438 139.558594 "/>
<path style=" stroke:none;fill-rule:nonzero;fill:rgb(13.729858%,12.159729%,12.548828%);fill-opacity:1;" d="M 199.953125 147.839844 C 160.523438 147.839844 82.855469 116.382812 82.03125 116.046875 L 82.5 114.890625 C 83.367188 115.246094 169.597656 150.160156 206.03125 146.296875 C 242.480469 142.425781 332.082031 83.488281 332.984375 82.894531 L 333.671875 83.933594 C 332.765625 84.527344 242.910156 143.632812 206.164062 147.535156 C 204.226562 147.742188 202.148438 147.839844 199.953125 147.839844 Z M 199.953125 147.839844 "/>
<path style=" stroke:none;fill-rule:nonzero;fill:rgb(13.729858%,12.159729%,12.548828%);fill-opacity:1;" d="M 211.660156 179.84375 C 171.71875 179.84375 93.328125 148.136719 92.5 147.800781 L 92.96875 146.644531 C 93.839844 147 180.375 182.011719 217.515625 178.328125 C 254.636719 174.65625 339.679688 112.550781 340.535156 111.925781 L 341.273438 112.929688 C 340.414062 113.558594 255.097656 175.863281 217.636719 179.570312 C 215.765625 179.757812 213.765625 179.84375 211.660156 179.84375 Z M 211.660156 179.84375 "/>
<path style=" stroke:none;fill-rule:nonzero;fill:rgb(13.729858%,12.159729%,12.548828%);fill-opacity:1;" d="M 251.546875 266.847656 L 211.535156 136.296875 L 212.730469 135.929688 L 252.738281 266.480469 Z M 251.546875 266.847656 "/>
<path style=" stroke:none;fill-rule:nonzero;fill:rgb(0%,29.019165%,67.83905%);fill-opacity:1;" d="M 144.578125 109.757812 C 150.601562 116.410156 156 128.667969 151.015625 137.1875 C 149.769531 138.847656 148.109375 140.71875 149.355469 142.796875 C 151.015625 144.875 153.507812 144.25 155.585938 144.25 C 160.363281 144.457031 164.101562 146.953125 164.515625 151.9375 C 164.933594 157.132812 159.742188 161.496094 155.585938 163.78125 C 150.601562 166.273438 143.746094 165.859375 138.347656 165.234375 C 126.507812 163.78125 116.953125 154.015625 116.539062 141.757812 C 116.332031 136.976562 117.371094 132.824219 120.691406 129.082031 "/>
<path style=" stroke:none;fill-rule:nonzero;fill:rgb(13.729858%,12.159729%,12.548828%);fill-opacity:1;" d="M 145.457031 166.332031 C 142.96875 166.332031 140.503906 166.113281 138.277344 165.855469 C 125.941406 164.339844 116.328125 153.988281 115.914062 141.777344 C 115.683594 136.410156 117.050781 132.242188 120.226562 128.667969 L 121.160156 129.496094 C 118.210938 132.8125 116.941406 136.699219 117.160156 141.730469 C 117.554688 153.339844 126.695312 163.175781 138.421875 164.617188 C 143.753906 165.234375 150.496094 165.628906 155.308594 163.222656 C 159.691406 160.8125 164.265625 156.585938 163.894531 151.988281 C 163.539062 147.683594 160.5 145.089844 155.558594 144.875 C 155.214844 144.875 154.828125 144.894531 154.4375 144.914062 C 152.644531 145.015625 150.421875 145.128906 148.867188 143.183594 C 147.453125 140.839844 148.992188 138.820312 150.226562 137.199219 L 150.519531 136.8125 C 155.019531 129.109375 150.589844 117.324219 144.117188 110.175781 L 145.039062 109.339844 C 151.8125 116.816406 156.398438 129.226562 151.554688 137.5 L 151.214844 137.953125 C 149.851562 139.746094 149.023438 141.027344 149.890625 142.476562 C 150.996094 143.851562 152.632812 143.761719 154.367188 143.671875 C 154.785156 143.648438 155.191406 143.625 155.585938 143.625 C 161.167969 143.867188 164.726562 146.957031 165.136719 151.886719 C 165.660156 158.417969 158.1875 163.058594 155.886719 164.328125 C 152.832031 165.855469 149.125 166.332031 145.457031 166.332031 Z M 145.457031 166.332031 "/>
<path style=" stroke:none;fill-rule:nonzero;fill:rgb(0%,29.019165%,67.83905%);fill-opacity:1;" d="M 269.25 190.96875 C 241.835938 172.28125 181.945312 141.15625 93.503906 160.035156 C 69.085938 165.25 4.75 202.652344 1.429688 240.144531 C 0.00390625 256.21875 33.097656 301.648438 48.882812 303.308594 C 65.496094 304.972656 90.53125 287.519531 83.054688 270.894531 C 81.394531 265.910156 68.082031 254.832031 64.761719 247.351562 C 61.4375 239.871094 86.410156 228.289062 88.382812 236.054688 C 90.523438 244.457031 93.417969 252.785156 98.355469 259.988281 C 101.519531 264.605469 105.078125 268.175781 109.980469 270.761719 C 114.621094 273.207031 119.953125 275.90625 121.222656 281.589844 C 121.949219 284.824219 121.152344 288.652344 121.316406 291.976562 C 121.707031 299.933594 127.808594 304.539062 135.128906 307.351562 C 148.695312 312.5625 162.753906 310.933594 176.898438 309.753906 C 195.453125 308.207031 213.300781 301.300781 227.289062 288.921875 C 232.785156 284.058594 239.367188 279.105469 236.445312 271.023438 C 232.960938 261.382812 227.597656 252.019531 223.828125 242.363281 C 222.707031 239.492188 219.488281 234.148438 219.976562 230.910156 C 220.367188 228.320312 229.109375 229.097656 236.71875 232.441406 C 244.328125 235.78125 258.335938 264.640625 260.953125 274.21875 C 266.453125 294.324219 309.972656 277.542969 310.804688 269.234375 C 311.632812 260.921875 296.667969 209.652344 269.25 190.96875 Z M 269.25 190.96875 "/>
<path style=" stroke:none;fill-rule:nonzero;fill:rgb(13.729858%,12.159729%,12.548828%);fill-opacity:1;" d="M 157.109375 311.582031 C 148.441406 311.582031 141.386719 310.425781 134.90625 307.933594 C 125.824219 304.445312 121.042969 299.089844 120.695312 292.007812 C 120.628906 290.695312 120.710938 289.292969 120.789062 287.9375 C 120.914062 285.820312 121.042969 283.628906 120.617188 281.726562 C 119.433594 276.445312 114.417969 273.804688 109.988281 271.46875 L 109.691406 271.3125 C 105.066406 268.871094 101.300781 265.386719 97.839844 260.34375 C 92.25 252.179688 89.421875 242.660156 87.78125 236.207031 C 87.425781 234.8125 86.117188 234.105469 83.882812 234.105469 C 78.097656 234.105469 68.898438 238.835938 65.992188 243.308594 C 65.066406 244.730469 64.847656 246.007812 65.332031 247.097656 C 67.03125 250.925781 71.5625 255.886719 75.5625 260.261719 C 79.453125 264.523438 82.8125 268.203125 83.648438 270.699219 C 86.023438 275.976562 85.367188 281.777344 81.722656 287.414062 C 75.695312 296.738281 62.265625 304.042969 51.148438 304.042969 C 50.355469 304.042969 49.570312 304.003906 48.820312 303.929688 C 40.007812 303 27.226562 289.671875 18.203125 277.503906 C 9.667969 266 -0.0078125 249.296875 0.808594 240.089844 C 4.117188 202.753906 68.265625 164.789062 93.375 159.425781 C 111.648438 155.527344 129.816406 153.546875 147.375 153.546875 C 203.640625 153.546875 244.898438 173.617188 269.601562 190.453125 C 297.4375 209.421875 312.234375 261.183594 311.421875 269.296875 C 310.84375 275.101562 291.941406 284.34375 276.992188 284.34375 C 276.992188 284.34375 276.988281 284.34375 276.988281 284.34375 C 267.886719 284.34375 262.136719 280.898438 260.355469 274.386719 C 257.742188 264.828125 243.808594 236.234375 236.46875 233.011719 C 232.292969 231.175781 227.363281 229.992188 223.914062 229.992188 C 221.988281 229.992188 220.683594 230.386719 220.589844 231.003906 C 220.257812 233.226562 221.898438 236.703125 223.21875 239.496094 C 223.679688 240.464844 224.113281 241.386719 224.410156 242.136719 C 226.148438 246.59375 228.265625 251.066406 230.3125 255.394531 C 232.691406 260.417969 235.152344 265.613281 237.03125 270.808594 C 239.894531 278.726562 234.039062 283.84375 228.871094 288.363281 L 227.703125 289.386719 C 214.027344 301.488281 196.480469 308.746094 176.949219 310.375 L 174.285156 310.601562 C 168.644531 311.082031 162.808594 311.582031 157.109375 311.582031 Z M 83.882812 232.855469 C 87.460938 232.855469 88.632812 234.511719 88.988281 235.898438 C 90.605469 242.257812 93.386719 251.640625 98.867188 259.636719 C 102.253906 264.574219 105.769531 267.835938 110.273438 270.210938 L 110.566406 270.367188 C 115.234375 272.824219 120.523438 275.613281 121.832031 281.453125 C 122.296875 283.527344 122.160156 285.804688 122.03125 288.011719 C 121.953125 289.394531 121.875 290.699219 121.9375 291.949219 C 122.265625 298.582031 126.652344 303.429688 135.351562 306.769531 C 141.683594 309.203125 148.597656 310.335938 157.109375 310.335938 C 162.753906 310.335938 168.5625 309.839844 174.179688 309.359375 L 176.84375 309.132812 C 196.101562 307.527344 213.402344 300.378906 226.875 288.457031 L 228.050781 287.425781 C 233.152344 282.964844 238.433594 278.347656 235.859375 271.234375 C 234 266.09375 231.550781 260.925781 229.1875 255.929688 C 227.128906 251.585938 225 247.089844 223.246094 242.59375 C 222.96875 241.878906 222.542969 240.980469 222.09375 240.027344 C 220.699219 237.082031 218.96875 233.417969 219.359375 230.820312 C 219.5 229.875 220.40625 228.746094 223.910156 228.746094 C 227.574219 228.746094 232.578125 229.941406 236.96875 231.871094 C 244.75 235.285156 258.824219 264.066406 261.554688 274.058594 C 263.597656 281.527344 271.074219 283.097656 276.988281 283.097656 C 291.621094 283.097656 309.710938 273.894531 310.183594 269.171875 C 310.980469 261.1875 296.371094 210.203125 268.902344 191.484375 C 244.339844 174.746094 203.324219 154.796875 147.375 154.796875 C 129.902344 154.796875 111.824219 156.765625 93.636719 160.648438 C 68.785156 165.953125 5.308594 203.414062 2.050781 240.199219 C 1.414062 247.378906 8.304688 262.070312 19.203125 276.761719 C 30.34375 291.78125 42.019531 301.960938 48.945312 302.6875 C 49.652344 302.761719 50.394531 302.796875 51.148438 302.796875 C 61.882812 302.796875 74.855469 295.742188 80.675781 286.738281 C 83.046875 283.066406 85.289062 277.382812 82.484375 271.152344 C 81.714844 268.847656 78.277344 265.085938 74.640625 261.101562 C 70.578125 256.65625 65.972656 251.617188 64.191406 247.605469 C 63.535156 246.121094 63.792969 244.402344 64.945312 242.628906 C 68.089844 237.789062 77.648438 232.855469 83.882812 232.855469 Z M 83.882812 232.855469 "/>
<path style=" stroke:none;fill-rule:nonzero;fill:rgb(49.409485%,85.099792%,34.118652%);fill-opacity:1;" d="M 103.269531 157.261719 C 100.269531 158.457031 66.042969 167.1875 70.851562 198.78125 C 75.074219 226.527344 84.035156 239.828125 90.214844 242.527344 C 94.667969 262.234375 109.980469 270.761719 109.980469 270.761719 C 98.011719 266.664062 56.949219 240.179688 55.414062 197.164062 C 54.171875 162.285156 84.925781 147.160156 90.628906 146.28125 C 96.332031 145.402344 106.273438 156.0625 103.269531 157.261719 Z M 103.269531 157.261719 "/>
<path style=" stroke:none;fill-rule:nonzero;fill:rgb(13.729858%,12.159729%,12.548828%);fill-opacity:1;" d="M 109.78125 271.351562 C 96.199219 266.699219 56.296875 239.414062 54.792969 197.1875 C 53.585938 163.367188 82.925781 146.835938 90.535156 145.664062 C 95.535156 144.90625 103.710938 152.328125 104.398438 155.921875 C 104.648438 157.230469 103.855469 157.699219 103.5 157.839844 C 103.277344 157.929688 102.882812 158.0625 102.34375 158.238281 C 79.277344 165.871094 68.601562 179.859375 71.464844 198.6875 C 75.40625 224.5625 83.84375 239.0625 90.460938 241.957031 L 90.75 242.082031 L 90.820312 242.390625 C 95.164062 261.601562 110.132812 270.132812 110.285156 270.21875 Z M 91.324219 146.851562 C 91.121094 146.851562 90.917969 146.867188 90.722656 146.894531 C 86.414062 147.558594 54.78125 161.917969 56.039062 197.144531 C 57.359375 234.230469 88.757812 259.613281 105.019531 267.914062 C 100.089844 263.746094 92.625 255.632812 89.675781 242.964844 C 83.273438 239.894531 74.457031 226.605469 70.234375 198.875 C 68.164062 185.269531 71.988281 166.972656 101.953125 157.054688 C 102.457031 156.890625 102.828125 156.765625 103.039062 156.683594 C 103.125 156.648438 103.257812 156.59375 103.175781 156.15625 C 102.671875 153.53125 95.90625 146.851562 91.324219 146.851562 Z M 91.324219 146.851562 "/>
<path style=" stroke:none;fill-rule:nonzero;fill:rgb(0%,29.019165%,67.83905%);fill-opacity:1;" d="M 127.066406 155.203125 C 137.660156 152.660156 152.140625 154.476562 153.460938 164.527344 C 154.78125 174.574219 137.058594 191.429688 128.113281 193.5625 C 110.941406 197.660156 95.71875 188.246094 92.199219 175.527344 C 88.683594 162.804688 127.066406 155.203125 127.066406 155.203125 Z M 127.066406 155.203125 "/>
<path style=" stroke:none;fill-rule:nonzero;fill:rgb(13.729858%,12.159729%,12.548828%);fill-opacity:1;" d="M 119.988281 195.15625 C 106.65625 195.15625 94.71875 186.96875 91.601562 175.691406 C 91.070312 173.777344 91.382812 171.871094 92.523438 170.019531 C 98.503906 160.320312 125.789062 154.820312 126.945312 154.59375 C 129.777344 153.910156 132.871094 153.546875 135.863281 153.546875 C 146.371094 153.546875 153.179688 157.621094 154.078125 164.445312 C 155.429688 174.726562 137.785156 191.894531 128.261719 194.167969 C 125.511719 194.824219 122.730469 195.15625 119.988281 195.15625 Z M 135.863281 154.792969 C 132.96875 154.792969 129.976562 155.144531 127.210938 155.808594 C 126.910156 155.871094 99.28125 161.4375 93.585938 170.671875 C 92.621094 172.238281 92.363281 173.773438 92.800781 175.359375 C 95.773438 186.109375 107.207031 193.910156 119.988281 193.910156 C 122.628906 193.910156 125.316406 193.589844 127.96875 192.957031 C 136.902344 190.824219 154.097656 174.164062 152.84375 164.609375 C 151.644531 155.503906 139.542969 154.792969 135.863281 154.792969 Z M 135.863281 154.792969 "/>
<path style=" stroke:none;fill-rule:nonzero;fill:rgb(87.449646%,52.549744%,39.99939%);fill-opacity:1;" d="M 126.5 142.628906 C 126.5 142.628906 130.359375 154.828125 131.632812 157.507812 C 132.902344 160.1875 141.628906 154.695312 142.5625 161.804688 C 143.496094 168.914062 129.105469 181.492188 122.777344 183 C 110.628906 185.902344 98.945312 175.074219 98.011719 172.113281 C 97.078125 169.152344 98.011719 157.742188 98.011719 157.742188 "/>
<path style=" stroke:none;fill-rule:nonzero;fill:rgb(13.729858%,12.159729%,12.548828%);fill-opacity:1;" d="M 118.578125 184.113281 C 107.773438 184.113281 98.320312 175.160156 97.417969 172.300781 C 96.457031 169.257812 97.351562 158.160156 97.390625 157.691406 C 97.417969 157.347656 97.707031 157.09375 98.0625 157.121094 C 98.40625 157.148438 98.660156 157.449219 98.632812 157.792969 C 98.621094 157.90625 97.71875 169.113281 98.605469 171.925781 C 99.523438 174.839844 111.054688 185.160156 122.632812 182.394531 C 128.5 180.992188 142.84375 168.734375 141.945312 161.886719 C 141.484375 158.382812 139.136719 158.378906 135.613281 158.773438 C 133.625 159 131.75 159.207031 131.070312 157.777344 C 129.792969 155.089844 126.0625 143.316406 125.90625 142.816406 C 125.800781 142.488281 125.984375 142.136719 126.3125 142.035156 C 126.644531 141.933594 126.992188 142.113281 127.09375 142.441406 C 127.132812 142.5625 130.957031 154.628906 132.195312 157.242188 C 132.496094 157.871094 133.941406 157.707031 135.472656 157.535156 C 138.285156 157.222656 142.527344 156.746094 143.179688 161.722656 C 144.171875 169.25 129.261719 182.09375 122.925781 183.605469 C 121.464844 183.957031 120.007812 184.113281 118.578125 184.113281 Z M 118.578125 184.113281 "/>
<path style=" stroke:none;fill-rule:nonzero;fill:rgb(13.729858%,12.159729%,12.548828%);fill-opacity:1;" d="M 126.5 138.3125 C 125.09375 147.554688 124.652344 157.175781 119.734375 165.476562 C 117.835938 168.675781 118.078125 179.933594 108.101562 174.734375 C 104.9375 173.085938 98.53125 161.234375 98.53125 161.234375 Z M 126.5 138.3125 "/>
<path style=" stroke:none;fill-rule:nonzero;fill:rgb(87.449646%,52.549744%,39.99939%);fill-opacity:1;" d="M 72.871094 141.605469 C 73.425781 140.023438 73.765625 138.488281 73.941406 136.984375 C 74.957031 128.152344 70.28125 120.460938 70.472656 111.277344 C 70.75 97.984375 85.171875 85.867188 99.703125 85.554688 C 120.425781 85.113281 131.148438 105.15625 133.375 121.15625 C 133.613281 122.882812 133.753906 124.636719 133.808594 126.402344 C 137.390625 124.082031 141.472656 123.175781 143.460938 128.199219 C 147.089844 137.355469 141.363281 138.460938 139.441406 142.570312 C 137.625 146.464844 133.75 148.503906 129.652344 148.886719 C 127.410156 154.3125 126.957031 159.046875 120.371094 163.613281 C 104.238281 174.800781 81.710938 176.667969 71.835938 160.207031 C 68.027344 153.859375 70.570312 148.164062 72.871094 141.605469 Z M 72.871094 141.605469 "/>
<path style=" stroke:none;fill-rule:nonzero;fill:rgb(13.729858%,12.159729%,12.548828%);fill-opacity:1;" d="M 94.5 172.910156 C 84.328125 172.910156 76.089844 168.511719 71.300781 160.527344 C 67.632812 154.414062 69.632812 148.820312 71.75 142.898438 L 72.285156 141.398438 C 72.804688 139.917969 73.144531 138.449219 73.320312 136.910156 C 73.851562 132.316406 72.808594 128.074219 71.707031 123.582031 C 70.75 119.675781 69.757812 115.636719 69.847656 111.265625 C 70.128906 97.808594 84.351562 85.257812 99.691406 84.933594 C 119.703125 84.507812 131.539062 103.460938 133.988281 121.066406 C 134.179688 122.429688 134.3125 123.855469 134.386719 125.324219 C 136.042969 124.386719 137.5625 123.914062 138.914062 123.914062 C 140.519531 123.914062 142.710938 124.617188 144.039062 127.96875 C 146.792969 134.910156 144.320312 137.605469 142.136719 139.988281 C 141.300781 140.898438 140.507812 141.761719 140.007812 142.832031 C 138.277344 146.53125 134.675781 148.933594 130.089844 149.464844 C 129.707031 150.417969 129.371094 151.351562 129.046875 152.261719 C 127.5625 156.425781 126.160156 160.355469 120.726562 164.125 C 112.675781 169.707031 103.117188 172.910156 94.5 172.910156 Z M 100.375 86.171875 C 100.15625 86.171875 99.9375 86.175781 99.71875 86.179688 C 85.269531 86.484375 71.359375 98.691406 71.09375 111.292969 C 71.007812 115.496094 71.980469 119.457031 72.917969 123.285156 C 73.996094 127.683594 75.113281 132.234375 74.558594 137.054688 C 74.371094 138.6875 74.011719 140.246094 73.460938 141.8125 L 72.925781 143.316406 C 70.824219 149.199219 69.007812 154.277344 72.367188 159.886719 C 76.925781 167.480469 84.785156 171.664062 94.5 171.664062 C 102.867188 171.664062 112.167969 168.542969 120.015625 163.101562 C 125.125 159.558594 126.398438 155.984375 127.875 151.84375 C 128.246094 150.8125 128.625 149.746094 129.078125 148.648438 C 129.167969 148.433594 129.367188 148.289062 129.597656 148.265625 C 133.914062 147.863281 137.296875 145.691406 138.878906 142.304688 C 139.460938 141.0625 140.355469 140.085938 141.222656 139.144531 C 143.34375 136.828125 145.347656 134.644531 142.882812 128.425781 C 141.355469 124.574219 138.363281 124.191406 134.148438 126.925781 C 133.960938 127.050781 133.71875 127.0625 133.519531 126.957031 C 133.320312 126.851562 133.195312 126.648438 133.1875 126.421875 C 133.128906 124.625 132.988281 122.882812 132.757812 121.238281 C 130.40625 104.351562 119.269531 86.171875 100.375 86.171875 Z M 100.375 86.171875 "/>
<path style=" stroke:none;fill-rule:nonzero;fill:rgb(13.729858%,12.159729%,12.548828%);fill-opacity:1;" d="M 138.324219 136.96875 C 139.585938 135.175781 141.171875 133.710938 140.910156 131.300781 C 140.707031 129.429688 138.65625 128.492188 136.96875 128.660156 C 133.148438 129.039062 130.421875 134.164062 129.320312 137.355469 C 129.097656 138 129.796875 138.660156 130.429688 138.46875 C 131.191406 138.234375 131.59375 138.707031 131.667969 139.445312 C 131.757812 140.355469 130.71875 140.304688 130.074219 140.457031 C 129.667969 140.554688 129.484375 141.140625 129.816406 141.425781 C 131.269531 142.660156 133.421875 141.71875 133.472656 139.75 C 133.519531 137.757812 132.007812 136.09375 129.960938 136.71875 C 130.328125 137.089844 130.699219 137.460938 131.066406 137.832031 C 131.902344 135.417969 133.398438 133.054688 135.289062 131.335938 C 136.628906 130.117188 139.691406 129.757812 139.3125 132.488281 C 139.128906 133.820312 138.464844 135.515625 137.855469 136.699219 C 137.695312 137.011719 138.125 137.253906 138.324219 136.96875 Z M 138.324219 136.96875 "/>
<path style=" stroke:none;fill-rule:nonzero;fill:rgb(13.729858%,12.159729%,12.548828%);fill-opacity:1;" d="M 101.378906 131.089844 C 105.492188 130.597656 105.808594 138.839844 102.703125 139.515625 C 99.167969 140.28125 96.773438 131.644531 101.378906 131.089844 Z M 101.378906 131.089844 "/>
<path style=" stroke:none;fill-rule:nonzero;fill:rgb(13.729858%,12.159729%,12.548828%);fill-opacity:1;" d="M 110.957031 135.492188 C 108.878906 140.226562 103.453125 142.597656 100.304688 137.382812 C 98.871094 135.007812 98.753906 131.929688 98.960938 129.246094 C 99.160156 126.679688 100.230469 122.675781 103.273438 122.320312 C 106.796875 121.910156 109.800781 126.726562 110.992188 129.371094 C 111.117188 129.644531 111.488281 129.4375 111.445312 129.179688 C 110.710938 124.820312 108.160156 120.628906 103.285156 120.480469 C 99.359375 120.363281 97.625 125.335938 97.296875 128.4375 C 96.863281 132.484375 97.414062 138.070312 101.046875 140.675781 C 105.761719 144.0625 109.980469 140.382812 111.558594 135.742188 C 111.675781 135.390625 111.105469 135.148438 110.957031 135.492188 Z M 110.957031 135.492188 "/>
<path style=" stroke:none;fill-rule:nonzero;fill:rgb(13.729858%,12.159729%,12.548828%);fill-opacity:1;" d="M 78.503906 132.6875 C 81.996094 132.269531 82.414062 140.5 79.78125 141.117188 C 76.789062 141.820312 74.597656 133.15625 78.503906 132.6875 Z M 78.503906 132.6875 "/>
<path style=" stroke:none;fill-rule:nonzero;fill:rgb(13.729858%,12.159729%,12.548828%);fill-opacity:1;" d="M 86.832031 137.601562 C 85.808594 140.367188 83.074219 144.527344 79.40625 141.289062 C 78.417969 140.410156 77.863281 139.019531 77.441406 137.8125 C 76.632812 135.507812 76.582031 132.972656 76.757812 130.5625 C 76.910156 128.507812 77.585938 124.449219 80.242188 124.238281 C 83.285156 124 85.820312 129.160156 86.792969 131.414062 C 86.914062 131.695312 87.28125 131.472656 87.246094 131.226562 C 86.714844 127.320312 84.507812 122.054688 79.6875 122.445312 C 76.097656 122.738281 75.265625 127.820312 75 130.550781 C 74.59375 134.738281 75.496094 139.96875 78.839844 142.820312 C 82.988281 146.355469 86.480469 141.433594 87.46875 137.773438 C 87.578125 137.355469 86.976562 137.207031 86.832031 137.601562 Z M 86.832031 137.601562 "/>
<path style=" stroke:none;fill-rule:nonzero;fill:rgb(87.449646%,52.549744%,39.99939%);fill-opacity:1;" d="M 88.195312 134.695312 C 87.527344 136.019531 87.265625 137.296875 86.1875 138.667969 C 84.4375 141.367188 80.8125 142.21875 79.421875 144.457031 C 78.03125 146.695312 79.621094 150.183594 84.667969 150.667969 C 84.667969 150.667969 88.660156 147.394531 90.199219 142.773438 C 91.734375 138.152344 88.195312 134.695312 88.195312 134.695312 Z M 88.195312 134.695312 "/>
<path style=" stroke:none;fill-rule:nonzero;fill:rgb(13.729858%,12.159729%,12.548828%);fill-opacity:1;" d="M 87.972656 134.570312 C 86.503906 137.613281 85 139.722656 82.082031 141.558594 C 80.566406 142.511719 79.144531 143.519531 78.578125 145.285156 C 77.445312 148.851562 81.746094 151.203125 84.664062 151.15625 C 85.222656 151.148438 85.328125 150.355469 84.796875 150.195312 C 82.660156 149.542969 80.480469 149.136719 79.566406 146.8125 C 78.648438 144.46875 81.707031 142.910156 83.253906 141.902344 C 86.097656 140.050781 87.101562 137.839844 88.417969 134.824219 C 88.546875 134.527344 88.121094 134.269531 87.972656 134.570312 Z M 87.972656 134.570312 "/>
<path style=" stroke:none;fill-rule:nonzero;fill:rgb(13.729858%,12.159729%,12.548828%);fill-opacity:1;" d="M 76.097656 121.632812 C 76.699219 120.84375 78.265625 120.632812 79.148438 120.429688 C 81.019531 120 82.675781 120.230469 84.496094 120.742188 C 85.753906 121.09375 87.132812 120.523438 87.792969 119.398438 C 88.070312 118.921875 88.171875 118.476562 88.191406 117.925781 C 88.234375 116.640625 87.269531 115.441406 86.046875 115.113281 C 82.726562 114.21875 79.9375 114.296875 76.730469 115.574219 C 74.050781 116.636719 71.945312 118.640625 73.238281 121.636719 C 73.792969 122.910156 75.445312 122.492188 76.097656 121.632812 Z M 76.097656 121.632812 "/>
<path style=" stroke:none;fill-rule:nonzero;fill:rgb(13.729858%,12.159729%,12.548828%);fill-opacity:1;" d="M 96.320312 120.078125 C 97.601562 120.078125 98.058594 119.578125 99.082031 118.882812 C 100.210938 118.113281 101.605469 117.980469 102.925781 117.964844 C 105.515625 117.933594 107.917969 119.359375 110.3125 120.148438 C 113.660156 121.253906 115.554688 116.328125 112.65625 114.585938 C 109.328125 112.585938 105.230469 112.5 101.5 113.074219 C 98.679688 113.511719 94.359375 115.683594 94.914062 119.003906 C 95.019531 119.636719 95.722656 120.078125 96.320312 120.078125 Z M 96.320312 120.078125 "/>
<path style=" stroke:none;fill-rule:nonzero;fill:rgb(0%,29.019165%,67.83905%);fill-opacity:1;" d="M 122.148438 119.316406 C 122.976562 122.433594 124.429688 124.511719 124.015625 128.042969 C 123.601562 131.160156 120.070312 137.394531 126.714844 135.730469 C 130.664062 134.902344 137.855469 130.332031 137.847656 123.320312 "/>
<path style=" stroke:none;fill-rule:nonzero;fill:rgb(13.729858%,12.159729%,12.548828%);fill-opacity:1;" d="M 124.820312 136.632812 C 123.902344 136.632812 123.210938 136.390625 122.746094 135.902344 C 121.558594 134.671875 122.207031 132.425781 122.835938 130.253906 C 123.082031 129.402344 123.3125 128.597656 123.398438 127.960938 C 123.671875 125.625 123.078125 123.976562 122.390625 122.074219 C 122.097656 121.261719 121.796875 120.421875 121.546875 119.476562 L 122.75 119.15625 C 122.988281 120.046875 123.28125 120.863281 123.566406 121.648438 C 124.273438 123.617188 124.945312 125.476562 124.636719 128.117188 C 124.535156 128.855469 124.292969 129.703125 124.035156 130.597656 C 123.554688 132.261719 122.957031 134.328125 123.640625 135.039062 C 124.058594 135.472656 125.070312 135.5 126.566406 135.128906 C 130.183594 134.367188 137.230469 129.992188 137.226562 123.316406 L 138.472656 123.316406 C 138.476562 130.789062 130.902344 135.488281 126.84375 136.34375 C 126.074219 136.535156 125.402344 136.632812 124.820312 136.632812 Z M 124.820312 136.632812 "/>
<path style=" stroke:none;fill-rule:nonzero;fill:rgb(0%,29.019165%,67.83905%);fill-opacity:1;" d="M 77.855469 100.566406 C 73.910156 102.226562 71.792969 107.773438 70.546875 112.136719 C 69.300781 115.875 71.652344 118.855469 68.953125 122.179688 C 67.5 124.050781 63.554688 125.089844 63.761719 128.207031 C 63.96875 131.113281 67.5 131.324219 69.785156 130.90625 C 74.769531 129.867188 79.546875 125.710938 81 120.933594 C 81.832031 118.648438 81.414062 116.777344 83.285156 114.699219 C 84.738281 113.039062 87.230469 112.414062 89.515625 112.207031 C 91.800781 112 100.523438 112.207031 98.449219 107.222656 "/>
<path style=" stroke:none;fill-rule:nonzero;fill:rgb(13.729858%,12.159729%,12.548828%);fill-opacity:1;" d="M 67.980469 131.691406 C 66.820312 131.691406 65.425781 131.488281 64.40625 130.695312 C 63.640625 130.101562 63.214844 129.277344 63.140625 128.25 C 62.980469 125.839844 64.855469 124.542969 66.511719 123.402344 C 67.289062 122.867188 68.027344 122.359375 68.460938 121.796875 C 69.882812 120.046875 69.761719 118.429688 69.617188 116.5625 C 69.507812 115.117188 69.394531 113.625 69.957031 111.9375 C 71.859375 105.277344 74.367188 101.359375 77.613281 99.992188 L 78.097656 101.140625 C 75.21875 102.351562 72.945312 106.007812 71.148438 112.308594 C 70.65625 113.78125 70.761719 115.148438 70.859375 116.46875 C 71.007812 118.425781 71.164062 120.449219 69.4375 122.574219 C 68.890625 123.273438 68.078125 123.835938 67.21875 124.429688 C 65.699219 125.476562 64.269531 126.464844 64.382812 128.164062 C 64.429688 128.832031 64.6875 129.335938 65.167969 129.710938 C 66.246094 130.546875 68.203125 130.558594 69.671875 130.292969 C 74.507812 129.285156 79.027344 125.273438 80.402344 120.753906 C 80.679688 119.988281 80.8125 119.277344 80.941406 118.59375 C 81.203125 117.210938 81.472656 115.78125 82.820312 114.285156 C 84.136719 112.777344 86.375 111.867188 89.457031 111.585938 C 89.726562 111.5625 90.085938 111.542969 90.503906 111.519531 C 92.558594 111.414062 96.832031 111.1875 97.894531 109.5 C 98.230469 108.96875 98.222656 108.300781 97.871094 107.460938 L 99.019531 106.980469 C 99.53125 108.207031 99.507812 109.277344 98.949219 110.164062 C 97.542969 112.398438 93.179688 112.628906 90.570312 112.765625 C 90.171875 112.785156 89.828125 112.804688 89.570312 112.828125 C 86.816406 113.078125 84.859375 113.847656 83.753906 115.109375 C 82.632812 116.355469 82.417969 117.5 82.167969 118.824219 C 82.027344 119.558594 81.886719 120.316406 81.582031 121.144531 C 80.09375 126.042969 75.179688 130.417969 69.910156 131.515625 C 69.550781 131.582031 68.828125 131.691406 67.980469 131.691406 Z M 67.980469 131.691406 "/>
<path style=" stroke:none;fill-rule:nonzero;fill:rgb(49.409485%,85.099792%,34.118652%);fill-opacity:1;" d="M 67.695312 99.574219 C 70.171875 98.882812 76.835938 96.082031 80.683594 94.027344 C 86.441406 74.222656 99.429688 74.023438 123.707031 80.367188 C 156.570312 88.953125 147.265625 116.378906 143.585938 119.683594 C 139.90625 122.988281 117.824219 123.34375 106.585938 120.871094 C 95.605469 118.453125 91.976562 109.109375 87.527344 106.828125 C 82.464844 104.226562 77.871094 103.734375 73.984375 104.242188 C 72.050781 104.492188 70.546875 112.136719 70.546875 112.136719 C 70.546875 112.136719 64.800781 113.226562 61.101562 110.449219 C 57.402344 107.675781 57.222656 102.5 67.695312 99.574219 Z M 67.695312 99.574219 "/>
<path style=" stroke:none;fill-rule:nonzero;fill:rgb(13.729858%,12.159729%,12.548828%);fill-opacity:1;" d="M 124.914062 123.105469 C 117.878906 123.105469 111.148438 122.511719 106.449219 121.476562 C 99.050781 119.847656 94.96875 115.238281 91.691406 111.53125 C 90.070312 109.699219 88.667969 108.113281 87.246094 107.382812 C 82.882812 105.144531 78.425781 104.292969 74.0625 104.859375 C 73.273438 104.960938 71.914062 108.417969 71.160156 112.257812 C 71.109375 112.503906 70.914062 112.699219 70.664062 112.746094 C 70.617188 112.757812 69.476562 112.96875 67.875 112.96875 C 65.84375 112.96875 62.953125 112.621094 60.730469 110.949219 C 58.800781 109.503906 57.898438 107.589844 58.253906 105.703125 C 58.625 103.710938 60.539062 100.925781 67.527344 98.972656 C 69.839844 98.328125 76.285156 95.640625 80.160156 93.597656 C 83.804688 81.296875 90.296875 76.042969 101.820312 76.042969 C 107.226562 76.042969 114.023438 77.191406 123.863281 79.761719 C 140.464844 84.101562 145.921875 93.148438 147.578125 99.972656 C 149.765625 108.988281 146.359375 118.027344 144 120.148438 C 141.574219 122.328125 132.550781 123.105469 124.914062 123.105469 Z M 76.714844 103.441406 C 80.417969 103.441406 84.152344 104.394531 87.8125 106.273438 C 89.449219 107.113281 90.921875 108.777344 92.625 110.707031 C 95.785156 114.277344 99.714844 118.71875 106.71875 120.261719 C 111.261719 121.261719 118.066406 121.859375 124.917969 121.859375 C 134.074219 121.859375 141.410156 120.796875 143.167969 119.21875 C 145.082031 117.5 148.480469 108.980469 146.367188 100.269531 C 144.792969 93.773438 139.554688 85.148438 123.550781 80.96875 C 113.8125 78.425781 107.113281 77.292969 101.820312 77.292969 C 90.871094 77.292969 84.726562 82.347656 81.28125 94.199219 C 81.234375 94.359375 81.125 94.496094 80.976562 94.578125 C 76.964844 96.722656 70.300781 99.492188 67.863281 100.175781 C 61.15625 102.050781 59.730469 104.585938 59.476562 105.933594 C 59.214844 107.335938 59.941406 108.800781 61.476562 109.953125 C 63.425781 111.417969 66.03125 111.726562 67.875 111.726562 C 68.808594 111.726562 69.578125 111.644531 70.023438 111.585938 C 70.496094 109.324219 71.84375 103.890625 73.902344 103.621094 C 74.832031 103.5 75.777344 103.441406 76.714844 103.441406 Z M 76.714844 103.441406 "/>
<path style=" stroke:none;fill-rule:nonzero;fill:rgb(13.729858%,12.159729%,12.548828%);fill-opacity:1;" d="M 74.070312 103.570312 C 71.398438 104.089844 68.886719 104.714844 66.476562 106.007812 C 65.410156 106.578125 63.167969 107.617188 63.640625 109.152344 C 63.683594 109.296875 63.847656 109.332031 63.957031 109.238281 C 67.03125 106.585938 70.476562 105.558594 74.265625 104.289062 C 74.722656 104.136719 74.542969 103.476562 74.070312 103.570312 Z M 74.070312 103.570312 "/>
<path style=" stroke:none;fill-rule:nonzero;fill:rgb(13.729858%,12.159729%,12.548828%);fill-opacity:1;" d="M 102.910156 113.917969 C 102.671875 113.917969 102.441406 113.78125 102.339844 113.550781 C 98.929688 105.886719 90.808594 100.144531 84.929688 99.019531 C 79.691406 98.015625 74.671875 98.949219 70.644531 99.695312 C 69.609375 99.886719 68.648438 100.066406 67.785156 100.191406 C 67.441406 100.238281 67.128906 100.003906 67.078125 99.664062 C 67.027344 99.324219 67.265625 99.007812 67.605469 98.957031 C 68.457031 98.832031 69.398438 98.660156 70.417969 98.46875 C 74.550781 97.703125 79.695312 96.746094 85.164062 97.792969 C 91.355469 98.980469 99.902344 105.007812 103.480469 113.042969 C 103.621094 113.355469 103.476562 113.726562 103.164062 113.867188 C 103.082031 113.902344 102.996094 113.917969 102.910156 113.917969 Z M 102.910156 113.917969 "/>
<path style=" stroke:none;fill-rule:nonzero;fill:rgb(49.409485%,85.099792%,34.118652%);fill-opacity:1;" d="M 189.007812 155.78125 C 186.652344 157.996094 160.5 177.054688 176.546875 204.6875 C 201.886719 248.320312 227.640625 244.164062 231.792969 245.410156 C 235.949219 246.65625 241.769531 259.898438 235.949219 260.371094 C 230.128906 260.84375 181.109375 253.664062 161.589844 208.84375 C 147.65625 176.84375 166.867188 154.871094 171.851562 151.964844 C 176.839844 149.054688 191.363281 153.566406 189.007812 155.78125 Z M 189.007812 155.78125 "/>
<path style=" stroke:none;fill-rule:nonzero;fill:rgb(13.729858%,12.159729%,12.548828%);fill-opacity:1;" d="M 235.328125 261.015625 C 225.070312 261.015625 179.609375 251.777344 161.019531 209.089844 C 147.414062 177.847656 165.273438 155.082031 171.539062 151.425781 C 172.714844 150.742188 174.386719 150.394531 176.507812 150.394531 C 181.554688 150.394531 188.898438 152.507812 189.789062 154.75 C 190 155.285156 189.871094 155.824219 189.433594 156.234375 C 189.269531 156.390625 188.984375 156.632812 188.609375 156.949219 C 171.464844 171.4375 167.480469 187.835938 177.085938 204.375 C 198.984375 242.082031 220.933594 243.8125 229.195312 244.460938 C 230.460938 244.5625 231.371094 244.632812 231.972656 244.816406 C 235.316406 245.820312 239.449219 253.480469 238.992188 257.828125 C 238.792969 259.726562 237.730469 260.851562 236 260.992188 C 235.816406 261.007812 235.589844 261.015625 235.328125 261.015625 Z M 176.507812 151.640625 C 174.636719 151.640625 173.136719 151.9375 172.167969 152.503906 C 168.566406 154.601562 147.96875 175.996094 162.164062 208.59375 C 180.484375 250.660156 225.234375 259.769531 235.328125 259.769531 C 235.550781 259.769531 235.742188 259.761719 235.898438 259.75 C 236.609375 259.691406 237.570312 259.417969 237.753906 257.695312 C 238.148438 253.949219 234.421875 246.851562 231.617188 246.007812 C 231.144531 245.867188 230.238281 245.792969 229.097656 245.703125 C 220.65625 245.039062 198.234375 243.269531 176.007812 205 C 169.070312 193.054688 165.484375 174.855469 187.804688 155.996094 C 188.160156 155.695312 188.425781 155.472656 188.582031 155.324219 C 188.640625 155.226562 188.601562 155.109375 188.417969 154.921875 C 186.96875 153.445312 181.1875 151.640625 176.507812 151.640625 Z M 176.507812 151.640625 "/>
<path style=" stroke:none;fill-rule:nonzero;fill:rgb(13.729858%,12.159729%,12.548828%);fill-opacity:1;" d="M 261.941406 214.578125 C 259.367188 214.578125 256.882812 214.191406 254.09375 213.578125 C 253.757812 213.503906 253.542969 213.171875 253.617188 212.835938 C 253.691406 212.5 254.019531 212.289062 254.359375 212.359375 C 260.179688 213.640625 264.625 213.894531 271.472656 211.578125 C 271.800781 211.46875 272.152344 211.640625 272.261719 211.96875 C 272.375 212.292969 272.199219 212.648438 271.871094 212.757812 C 268.039062 214.054688 264.933594 214.578125 261.941406 214.578125 Z M 261.941406 214.578125 "/>
<path style=" stroke:none;fill-rule:nonzero;fill:rgb(13.729858%,12.159729%,12.548828%);fill-opacity:1;" d="M 60.960938 242.503906 C 60.699219 242.503906 60.457031 242.335938 60.371094 242.074219 C 58.8125 237.398438 50.769531 232 45.882812 233.539062 C 45.550781 233.640625 45.203125 233.460938 45.101562 233.132812 C 44.996094 232.804688 45.179688 232.453125 45.507812 232.351562 C 51.167969 230.582031 59.761719 236.308594 61.550781 241.683594 C 61.660156 242.007812 61.484375 242.359375 61.15625 242.46875 C 61.09375 242.492188 61.027344 242.503906 60.960938 242.503906 Z M 60.960938 242.503906 "/>
<path style=" stroke:none;fill-rule:nonzero;fill:rgb(100%,100%,100%);fill-opacity:1;" d="M 100.652344 147.226562 C 95.640625 147.417969 93.648438 151.988281 89.761719 154.019531 C 87.375 155.265625 77.914062 154.550781 80.917969 160.128906 C 82.3125 162.722656 86.746094 163.792969 89.445312 163.792969 C 94.21875 163.792969 100.65625 161.71875 103.359375 157.773438 C 104.964844 155.425781 106.160156 150.589844 103.835938 148.378906 C 102.914062 147.503906 101.8125 147.183594 100.652344 147.226562 Z M 100.652344 147.226562 "/>
<path style=" stroke:none;fill-rule:nonzero;fill:rgb(13.729858%,12.159729%,12.548828%);fill-opacity:1;" d="M 89.445312 164.417969 C 86.660156 164.417969 81.945312 163.355469 80.367188 160.421875 C 79.648438 159.085938 79.519531 157.929688 79.988281 156.980469 C 80.921875 155.078125 83.898438 154.585938 86.523438 154.152344 C 87.75 153.953125 88.910156 153.761719 89.472656 153.464844 C 90.851562 152.746094 91.972656 151.691406 93.160156 150.578125 C 95.175781 148.6875 97.257812 146.734375 100.625 146.601562 L 100.855469 146.601562 C 102.191406 146.601562 103.335938 147.046875 104.261719 147.925781 C 106.832031 150.371094 105.664062 155.507812 103.871094 158.125 C 101.042969 162.257812 94.472656 164.417969 89.445312 164.417969 Z M 100.855469 147.847656 L 100.675781 147.851562 C 97.773438 147.960938 95.945312 149.675781 94.015625 151.488281 C 92.816406 152.609375 91.582031 153.769531 90.050781 154.570312 C 89.308594 154.957031 88.113281 155.15625 86.726562 155.382812 C 84.511719 155.75 81.757812 156.203125 81.105469 157.527344 C 80.828125 158.09375 80.949219 158.871094 81.464844 159.832031 C 82.703125 162.136719 86.878906 163.171875 89.445312 163.171875 C 94.03125 163.171875 100.285156 161.15625 102.84375 157.421875 C 104.386719 155.167969 105.371094 150.699219 103.40625 148.832031 C 102.710938 148.167969 101.875 147.847656 100.855469 147.847656 Z M 100.855469 147.847656 "/>
<path style=" stroke:none;fill-rule:nonzero;fill:rgb(100%,100%,100%);fill-opacity:1;" d="M 84.761719 155.101562 C 84.761719 155.101562 86.960938 162.976562 90.585938 163.792969 "/>
<path style=" stroke:none;fill-rule:nonzero;fill:rgb(13.729858%,12.159729%,12.548828%);fill-opacity:1;" d="M 90.449219 164.402344 C 86.507812 163.511719 84.257812 155.605469 84.164062 155.269531 L 85.363281 154.933594 C 85.949219 157.027344 88.050781 162.585938 90.722656 163.1875 Z M 90.449219 164.402344 "/>
<path style=" stroke:none;fill-rule:nonzero;fill:rgb(100%,100%,100%);fill-opacity:1;" d="M 94.875 149.855469 C 94.875 149.855469 98.949219 160.257812 100.128906 160.09375 "/>
<path style=" stroke:none;fill-rule:nonzero;fill:rgb(13.729858%,12.159729%,12.548828%);fill-opacity:1;" d="M 100.082031 160.722656 C 99.53125 160.722656 98.183594 160.011719 94.292969 150.082031 L 95.453125 149.628906 C 97.183594 154.039062 99.503906 159.066406 100.246094 159.5 C 100.222656 159.488281 100.144531 159.464844 100.042969 159.476562 L 100.21875 160.710938 C 100.175781 160.714844 100.132812 160.722656 100.082031 160.722656 Z M 100.082031 160.722656 "/>
</g>
</svg>
